<svg xmlns="http://www.w3.org/2000/svg" viewBox="0 0 410.7 410.7">
  <defs>
    <style>
      .cls-1 {
        fill: none;
        stroke: #48b09a;
        stroke-miterlimit: 10;
        stroke-width: 5px;
      }
    </style>
  </defs>
  <title>internet</title>
  <g id="Camada_1" data-name="Camada 1">
    <path id="caminho1" class="cls-1 jXlUfAUn_0" d="M101.6,413.6V380c1.6-2.1,1.1-4.8,1.4-7.1q7.6-62.9,49.1-110.7c1.2,1.3,2.4,2.5,3.5,3.8,9.2,11.1,14.4,23.8,18.2,37.7,5.1,18.8,14.6,35.1,32.7,44.9,6.2,3.4,12,7.5,16.5,13.1,3.1,3.9,5.6,8.4,8.7,12.4,6.9,9,16,12.8,27.3,11.5,2.2-.3,4.5-.6,6.8-.7,6.2-.3,10.3,2.7,13.2,7.9s5.9,10.2,11.1,13.4c1.3.8,2.7,1.3,4.1.5s1.2-2.6.9-4c-2.2-11.7-13.9-22.5-25.7-23.7-3.3-.4-6.6-.6-9.8-1.9-9.3-3.7-11.5-12.8-4.9-20.2a26.1,26.1,0,0,1,9.7-6.9,23.3,23.3,0,0,1,26,6.2,18.2,18.2,0,0,0,5.4,4.7,3.4,3.4,0,0,0,3.4.2c1.2-.8.9-2.1.6-3.3a67.9,67.9,0,0,0-2-6.9c-3.3-8.7-1.5-16.3,4.2-23.5,10-12.6,22.1-23.1,33.9-33.9,3.4-3.2,7.1-6.1,9.9-9.8,4.9-6.3,4.1-12.1-2.1-17.1a50.4,50.4,0,0,0-9.3-6.1c-8.6-4.3-16.7-9.5-26-12.1-5.1-1.4-8.2.7-9.4,5.9s-.5,7.4-.6,11.2c-.1,6.6-1.8,8.4-8.5,8.7-8.6.4-16.6-1.9-24.2-5.8-12.2-6.3-13.6-17-3.4-26.3,2.1-1.9,4.3-3.6,6.4-5.4a56.2,56.2,0,0,0,5.4-5.3c1.7-2,3.7-4.3,2.2-7.2s-4.1-2.7-6.7-2.8a56,56,0,0,0-13.9,1.3c-9.4,1.9-18.7,4.4-28.2,5.6-3.1.4-6.7,1.4-9.1-1.2s-3.1-1.8-5.2-1.2A183.3,183.3,0,0,0,169.9,246c-1,.6-1.9,2.1-3.5,1.3,36.4-33.9,79.6-52.1,129.1-55.1a199.9,199.9,0,0,1,64.8,7,204.9,204.9,0,0,1,149,225.9c-5.9,43.1-24.1,80.6-53.9,112.1-34,35.9-75.8,56.9-125,63-2.9.4-6-.3-8.8,1.4h-32c-.4-1.2-1.5-.8-2.4-.9a231.1,231.1,0,0,1-25.2-4A204.9,204.9,0,0,1,103.7,426.3C103.1,422,103.4,417.6,101.6,413.6ZM308,224l-.3-.2.3.2c2.5,4.8,6.1,8.7,9.8,12.5,5.7,5.8,11.4,5,15.7-1.9.8-1.2,1.1-2.3-.5-2.9C324.9,228.6,316.9,224.8,308,224Zm8.8,329.7c.2,10.2,3.8,18.5,11.7,24.9a7.7,7.7,0,0,0,4.3,1.9,5.9,5.9,0,0,0,5.6-3.1c1.3-2.2-1.1-2.6-2.1-3.6a13.5,13.5,0,0,1-4.1-11.3c1.6-14.3,6.3-27.1,17.9-36.7,5.9-4.9,11.9-9.9,16.8-16,12.5-15.6,23.6-32.3,34-49.3a39.9,39.9,0,0,0,5-11.3c1.8-7.6-.9-13.7-7.8-17.4a42.5,42.5,0,0,0-11.3-3.9,44.8,44.8,0,0,1-23.2-12.4c-7-7.1-15.7-11.3-25.4-13.5-4.3-1-8.6-1.6-12.9-2.4-6.2-1.2-11.3,1-15.4,5.6s-5.7,9.3-7.1,14.6c-4.5,17.3-1.9,32.5,13.2,43.9,1.7,1.3,3.3,2.8,5,4,5.1,3.8,7.3,8.9,7,15.2a240.6,240.6,0,0,1-8.2,53.2C318.3,541.9,316.9,547.7,316.8,553.7ZM474.2,404.9c5.8.1,5.8.1,5.1-3.4a188.7,188.7,0,0,0-16.6-46.9c-.5-.9-.7-2.3-1.9-2.3s-1.5,1.3-1.9,2.3c-5.5,12.4-6.8,25.2-1.8,38C460,400,465.2,405.3,474.2,404.9Z" transform="translate(-101.1 -191.4)"></path>
  </g>
  <g id="Camada_5" data-name="Camada 5">
    <path id="caminho2" class="cls-1 jXlUfAUn_1" d="M152.2,262.2a98,98,0,0,1,14.3-14.9c1.6.8,2.5-.7,3.5-1.3a183.3,183.3,0,0,1,43.5-19.9c2.1-.6,3.4-.7,5.2,1.2s6,1.6,9.1,1.2c9.5-1.2,18.8-3.7,28.2-5.6a56,56,0,0,1,13.9-1.3c2.6.1,5.4.2,6.7,2.8s-.5,5.1-2.2,7.2a56.2,56.2,0,0,1-5.4,5.3c-2.1,1.9-4.3,3.5-6.4,5.4-10.2,9.4-8.8,20,3.4,26.3,7.6,3.9,15.6,6.2,24.2,5.8,6.7-.3,8.4-2.2,8.5-8.7,0-3.7-.3-7.5.6-11.2s4.3-7.3,9.4-5.9c9.3,2.6,17.5,7.8,26,12.1a50.4,50.4,0,0,1,9.3,6.1c6.1,5,6.9,10.8,2.1,17.1-2.9,3.7-6.5,6.7-9.9,9.8C324.1,304.5,312,315,302,327.6c-5.7,7.2-7.5,14.8-4.2,23.5a67.9,67.9,0,0,1,2,6.9c.3,1.1.6,2.5-.6,3.3a3.4,3.4,0,0,1-3.4-.2,18.2,18.2,0,0,1-5.4-4.7,23.3,23.3,0,0,0-26-6.2,26.1,26.1,0,0,0-9.7,6.9c-6.7,7.4-4.5,16.5,4.9,20.2,3.1,1.2,6.5,1.5,9.8,1.9,11.8,1.2,23.5,12,25.7,23.7.3,1.4.7,3-.9,4s-2.8.4-4.1-.5c-5.2-3.3-8.2-8.3-11.1-13.4s-7.1-8.3-13.2-7.9c-2.3.1-4.5.4-6.8.7-11.3,1.3-20.4-2.6-27.3-11.5-3.1-4-5.5-8.5-8.7-12.4-4.5-5.6-10.3-9.8-16.5-13.1-18.1-9.8-27.6-26.1-32.7-44.9-3.8-13.9-9-26.7-18.2-37.7C154.5,264.7,153.3,263.5,152.2,262.2Z" transform="translate(-101.1 -191.4)"></path>
  </g>
  <g id="Camada_4" data-name="Camada 4">
    <path id="caminho3" class="cls-1 jXlUfAUn_2" d="M316.8,553.7c.1-5.9,1.5-11.7,3.1-17.5A240.6,240.6,0,0,0,328,483c.2-6.4-1.9-11.4-7-15.2-1.7-1.3-3.3-2.8-5-4-15.2-11.4-17.7-26.6-13.2-43.9,1.4-5.3,3.4-10.4,7.1-14.6s9.1-6.8,15.4-5.6c4.3.8,8.7,1.4,12.9,2.4,9.7,2.2,18.4,6.4,25.4,13.5a44.8,44.8,0,0,0,23.2,12.4,42.5,42.5,0,0,1,11.3,3.9c6.9,3.7,9.6,9.8,7.8,17.4a39.9,39.9,0,0,1-5,11.3c-10.4,17.1-21.4,33.7-34,49.3-4.9,6.1-10.8,11.1-16.8,16-11.6,9.6-16.3,22.4-17.9,36.7a13.5,13.5,0,0,0,4.1,11.3c1,1,3.4,1.4,2.1,3.6a5.9,5.9,0,0,1-5.6,3.1,7.7,7.7,0,0,1-4.3-1.9C320.6,572.2,317,563.8,316.8,553.7Z" transform="translate(-101.1 -191.4)"></path>
  </g>
  <g id="Camada_3" data-name="Camada 3">
    <path id="caminho4" class="cls-1 jXlUfAUn_3" d="M474.2,404.9c-9,.4-14.3-4.8-17.2-12.4-5-12.8-3.6-25.6,1.8-38,.4-.9.6-2.3,1.9-2.3s1.4,1.4,1.9,2.3a188.7,188.7,0,0,1,16.6,46.9C480,405,480,405,474.2,404.9Z" transform="translate(-101.1 -191.4)"></path>
  </g>
  <g id="Camada_2" data-name="Camada 2">
    <path id="caminho5" class="cls-1 jXlUfAUn_4" d="M308,224c8.9.8,16.8,4.6,25,7.7,1.6.6,1.3,1.7.5,2.9-4.4,6.9-10,7.7-15.7,1.9-3.7-3.8-7.3-7.7-9.8-12.5Z" transform="translate(-101.1 -191.4)"></path>
  </g>
<style>.jXlUfAUn_0{stroke-dasharray:2676 2678;stroke-dashoffset:2677;animation:jXlUfAUn_draw_0 3000ms linear 0ms infinite,jXlUfAUn_fade 3000ms linear 0ms infinite;}.jXlUfAUn_1{stroke-dasharray:762 764;stroke-dashoffset:763;animation:jXlUfAUn_draw_1 3000ms linear 0ms infinite,jXlUfAUn_fade 3000ms linear 0ms infinite;}.jXlUfAUn_2{stroke-dasharray:475 477;stroke-dashoffset:476;animation:jXlUfAUn_draw_2 3000ms linear 0ms infinite,jXlUfAUn_fade 3000ms linear 0ms infinite;}.jXlUfAUn_3{stroke-dasharray:127 129;stroke-dashoffset:128;animation:jXlUfAUn_draw_3 3000ms linear 0ms infinite,jXlUfAUn_fade 3000ms linear 0ms infinite;}.jXlUfAUn_4{stroke-dasharray:65 67;stroke-dashoffset:66;animation:jXlUfAUn_draw_4 3000ms linear 0ms infinite,jXlUfAUn_fade 3000ms linear 0ms infinite;}@keyframes jXlUfAUn_draw{100%{stroke-dashoffset:0;}}@keyframes jXlUfAUn_fade{0%{stroke-opacity:1;}100%{stroke-opacity:1;}100%{stroke-opacity:0;}}@keyframes jXlUfAUn_draw_0{0%{stroke-dashoffset: 2677}66.66666666666666%{ stroke-dashoffset: 0;}100%{ stroke-dashoffset: 0;}}@keyframes jXlUfAUn_draw_1{8.333333333333332%{stroke-dashoffset: 763}75%{ stroke-dashoffset: 0;}100%{ stroke-dashoffset: 0;}}@keyframes jXlUfAUn_draw_2{16.666666666666664%{stroke-dashoffset: 476}83.33333333333334%{ stroke-dashoffset: 0;}100%{ stroke-dashoffset: 0;}}@keyframes jXlUfAUn_draw_3{25%{stroke-dashoffset: 128}91.66666666666666%{ stroke-dashoffset: 0;}100%{ stroke-dashoffset: 0;}}@keyframes jXlUfAUn_draw_4{33.33333333333333%{stroke-dashoffset: 66}100%{ stroke-dashoffset: 0;}100%{ stroke-dashoffset: 0;}}</style></svg>
